<?xml version="1.0" standalone="no"?><!DOCTYPE svg PUBLIC "-//W3C//DTD SVG 1.1//EN" "http://www.w3.org/Graphics/SVG/1.1/DTD/svg11.dtd"><svg t="1712849165716" class="icon" viewBox="0 0 1024 1024" version="1.1" xmlns="http://www.w3.org/2000/svg" p-id="5517" width="28" height="28" xmlns:xlink="http://www.w3.org/1999/xlink"><path d="M793.6 870.4H230.4c-42.24 0-76.8-34.56-76.8-76.8V230.4c0-42.24 34.56-76.8 76.8-76.8h563.2c42.24 0 76.8 34.56 76.8 76.8v563.2c0 42.24-34.56 76.8-76.8 76.8zM230.4 204.8c-14.08 0-25.6 11.52-25.6 25.6v563.2c0 14.08 11.52 25.6 25.6 25.6h563.2c14.08 0 25.6-11.52 25.6-25.6V230.4c0-14.08-11.52-25.6-25.6-25.6H230.4z" fill="#707070" p-id="5518"></path><path d="M384 358.4h256c14.08 0 25.6 11.52 25.6 25.6v256c0 14.08-11.52 25.6-25.6 25.6H384c-14.08 0-25.6-11.52-25.6-25.6V384c0-14.08 11.52-25.6 25.6-25.6z" fill="#707070" p-id="5519"></path></svg>